<svg width="32" height="32" viewBox="0 0 32 32" fill="none" xmlns="http://www.w3.org/2000/svg">
<g id="solar:hand-heart-bold-duotone">
<g id="Group">
<path id="Vector" d="M9.33337 6.44075C9.33337 8.50342 11.6347 10.6781 13.5334 12.1208C14.5987 12.9288 15.1307 13.3341 16 13.3341C16.8694 13.3341 17.4014 12.9288 18.4667 12.1208C20.3654 10.6768 22.6667 8.50209 22.6667 6.44075C22.6667 2.72075 19 1.33009 16 4.20475C13 1.33009 9.33337 2.72075 9.33337 6.44075Z" fill="#2F85E7"/>
<path id="Vector_2" opacity="0.5" d="M8.34671 28.5181H8.00004C6.74271 28.5181 6.11471 28.5181 5.72404 28.1274C5.33337 27.7381 5.33337 27.1101 5.33337 25.8528V24.3701C5.33337 23.6794 5.33337 23.3341 5.51071 23.0248C5.68804 22.7168 5.95604 22.5608 6.49204 22.2488C10.02 20.1968 15.028 19.0421 18.372 21.0354C18.596 21.1701 18.7987 21.3328 18.972 21.5261C19.1511 21.7224 19.2891 21.9525 19.3777 22.2029C19.4664 22.4534 19.504 22.719 19.4884 22.9842C19.4727 23.2494 19.4041 23.5088 19.2866 23.7471C19.169 23.9853 19.005 24.1976 18.804 24.3714C18.6438 24.5237 18.4481 24.6337 18.2347 24.6914C18.3947 24.6728 18.548 24.6514 18.6947 24.6288C19.9094 24.4354 20.9294 23.7848 21.8627 23.0794L24.2734 21.2594C24.7034 20.9466 25.2216 20.7781 25.7534 20.7781C26.2852 20.7781 26.8033 20.9466 27.2334 21.2594C27.9974 21.8368 28.232 22.7874 27.748 23.5634C27.184 24.4674 26.3894 25.6234 25.6267 26.3301C24.8627 27.0368 23.7254 27.6688 22.7974 28.1168C21.768 28.6141 20.632 28.8994 19.476 29.0874C17.132 29.4661 14.6894 29.4074 12.3694 28.9301C11.0458 28.658 9.69801 28.519 8.34671 28.5181Z" fill="#2F85E7"/>
</g>
</g>
</svg>
