<svg width="30" height="24" viewBox="0 0 30 24" fill="none" xmlns="http://www.w3.org/2000/svg">
<g id="14965-hat 1" clip-path="url(#clip0_0_351)">
<path id="Vector" d="M17.3572 14.2143C13.5001 14.9286 9.8572 14.1428 6.28577 13V5.57141C11.6429 7.2857 17.4286 7.2857 22.7858 5.57141V13C22.4286 13.1428 22.2858 13.2143 21.9286 13.3571" stroke="#2F85E7" stroke-width="2" stroke-miterlimit="10" stroke-linecap="round" stroke-linejoin="round"/>
<path id="Vector_2" d="M19.8571 17.4286L17.7142 22.2857C18.2142 22.8572 18.9999 23.2143 19.8571 23.2143C20.7142 23.2143 21.4285 22.8572 21.9999 22.2857L19.8571 17.4286Z" stroke="#2F85E7" stroke-width="2" stroke-miterlimit="10" stroke-linecap="round" stroke-linejoin="round"/>
<path id="XMLID_1_" d="M28.3572 5.1428L14.5715 8.92852L0.714355 5.1428L14.5715 0.714233L28.3572 5.1428Z" fill="#A3C8F5"/>
<path id="Vector_3" d="M14.5715 0.714233L0.714355 5.1428L14.5715 8.92852L28.3572 5.1428L14.5715 0.714233Z" stroke="#2F85E7" stroke-width="2" stroke-miterlimit="10" stroke-linecap="round" stroke-linejoin="round"/>
<path id="Vector_4" d="M14.1428 5.21423L19.7857 7.92852V16.8571" stroke="#2F85E7" stroke-width="2" stroke-miterlimit="10" stroke-linecap="round" stroke-linejoin="round"/>
<path id="Vector_5" d="M20.6428 17.4285C20.6428 17.8571 20.2857 18.2143 19.8571 18.2143C19.4286 18.2143 19.0714 17.8571 19.0714 17.4285C19.0714 17 19.4286 16.6428 19.8571 16.6428C20.2857 16.6428 20.6428 17 20.6428 17.4285Z" stroke="#2F85E7" stroke-width="2" stroke-miterlimit="10" stroke-linecap="round" stroke-linejoin="round"/>
</g>
<defs>
<clipPath id="clip0_0_351">
<rect width="29.0714" height="24" fill="white"/>
</clipPath>
</defs>
</svg>
