<svg width="44" height="44" viewBox="0 0 44 44" fill="none" xmlns="http://www.w3.org/2000/svg">
<g id="solar:clipboard-heart-bold-duotone">
<g id="Group">
<path id="Vector" opacity="0.5" d="M38.5 29.33V18.33C38.5 13.1453 38.5 10.553 36.8885 8.94145C35.4805 7.53345 33.3208 7.35562 29.3333 7.33362H14.6667C10.6792 7.35562 8.5195 7.53345 7.1115 8.94145C5.5 10.553 5.5 13.1453 5.5 18.33V29.33C5.5 34.5165 5.5 37.1088 7.1115 38.7203C8.72117 40.33 11.3153 40.3299 16.5 40.3299H27.5C32.6847 40.3299 35.2788 40.33 36.8885 38.7203C38.5 37.107 38.5 34.5165 38.5 29.33Z" fill="white"/>
<path id="Vector_2" d="M14.6666 6.41693C14.6666 5.68759 14.9564 4.98811 15.4721 4.47239C15.9878 3.95666 16.6873 3.66693 17.4166 3.66693H26.5833C27.3126 3.66693 28.0121 3.95666 28.5278 4.47239C29.0436 4.98811 29.3333 5.68759 29.3333 6.41693V8.25026C29.3333 8.97961 29.0436 9.67908 28.5278 10.1948C28.0121 10.7105 27.3126 11.0003 26.5833 11.0003H17.4166C16.6873 11.0003 15.9878 10.7105 15.4721 10.1948C14.9564 9.67908 14.6666 8.97961 14.6666 8.25026V6.41693ZM16.5 23.2781C16.5 25.0821 18.6358 26.9888 20.2455 28.1713C21.0155 28.7359 21.4005 29.0183 22 29.0183C22.6013 29.0183 22.9845 28.7359 23.7545 28.1713C25.3641 26.9888 27.5 25.0821 27.5 23.2763C27.5 20.2109 24.475 19.0651 22 21.4338C19.525 19.0651 16.5 20.2091 16.5 23.2781Z" fill="white"/>
</g>
</g>
</svg>
