<svg width="44" height="44" viewBox="0 0 44 44" fill="none" xmlns="http://www.w3.org/2000/svg">
<g id="iconoir:user-love">
<g id="Group">
<path id="Vector" d="M22 22C23.9449 22 25.8101 21.2274 27.1854 19.8521C28.5607 18.4768 29.3333 16.6116 29.3333 14.6666C29.3333 12.7217 28.5607 10.8565 27.1854 9.4812C25.8101 8.10593 23.9449 7.33331 22 7.33331C20.055 7.33331 18.1898 8.10593 16.8145 9.4812C15.4392 10.8565 14.6666 12.7217 14.6666 14.6666C14.6666 16.6116 15.4392 18.4768 16.8145 19.8521C18.1898 21.2274 20.055 22 22 22Z" stroke="#2F85E7" stroke-width="2" stroke-linecap="round" stroke-linejoin="round"/>
<path id="Vector_2" d="M40.3333 31.68C40.3331 32.7832 39.8969 33.8415 39.1196 34.6243C37.3303 36.4283 35.5941 38.3093 33.737 40.0473C33.5295 40.2368 33.2572 40.3392 32.9763 40.3334C32.6955 40.3276 32.4276 40.214 32.2281 40.0162L26.8785 34.6262C26.1008 33.8428 25.6644 32.7838 25.6644 31.68C25.6644 30.5762 26.1008 29.5172 26.8785 28.7338C27.2665 28.3427 27.7282 28.0322 28.2368 27.8203C28.7455 27.6084 29.291 27.4993 29.842 27.4993C30.3931 27.4993 30.9386 27.6084 31.4473 27.8203C31.9559 28.0322 32.4176 28.3427 32.8056 28.7338L33 28.93L33.1943 28.7338C33.7771 28.146 34.5215 27.7447 35.3329 27.5809C36.1443 27.4172 36.9861 27.4983 37.7513 27.8141C38.5165 28.1299 39.1705 28.666 39.6302 29.3544C40.09 30.0427 40.3347 30.8522 40.3333 31.68Z" fill="#87B8F3" stroke="#2F85E7" stroke-width="2" stroke-linejoin="round"/>
<path id="Vector_3" d="M9.16663 36.6666V34.8333C9.16618 32.6681 9.71357 30.538 10.7578 28.6412C11.8021 26.7445 13.3093 25.1428 15.1391 23.9852C16.969 22.8277 19.0619 22.1519 21.2232 22.0208C23.3844 21.8898 25.5437 22.3077 27.5 23.2356" stroke="#2F85E7" stroke-width="2" stroke-linecap="round" stroke-linejoin="round"/>
</g>
</g>
</svg>
