<svg width="20" height="20" viewBox="0 0 20 20" fill="none" xmlns="http://www.w3.org/2000/svg">
<g clip-path="url(#clip0_0_447)">
<path d="M9.49863 0.00315437C7.89363 0.0225294 4.44301 0.286279 2.51301 2.0569C1.07738 3.4794 0.576134 5.58253 0.517384 8.18316C0.468634 10.7744 0.409884 15.6407 5.10051 16.9657V18.9838C5.10051 18.9838 5.07113 19.7913 5.60488 19.9569C6.26238 20.165 6.63676 19.5438 7.26176 18.8763L8.42738 17.5582C11.6368 17.825 14.0949 17.21 14.378 17.1188C15.0293 16.9107 18.6974 16.4419 19.2968 11.575C19.9118 6.54878 18.9974 3.3819 17.3468 1.9494H17.3368C16.8386 1.49065 14.8368 0.0319044 10.3643 0.0156544C10.3643 0.0156544 10.0324 -0.00684563 9.49863 0.00252937V0.00315437ZM9.55363 1.41628C10.0093 1.41315 10.2861 1.43253 10.2861 1.43253C14.0718 1.44253 15.8786 2.5819 16.3049 2.96565C17.6949 4.1569 18.4111 7.01191 17.8868 11.2082C17.3886 15.2769 14.4136 15.5344 13.863 15.71C13.6286 15.785 11.4636 16.3188 8.73613 16.1432C8.73613 16.1432 6.70488 18.5944 6.06988 19.2257C5.96926 19.3363 5.85176 19.3688 5.77676 19.3525C5.66926 19.3263 5.63676 19.1932 5.64301 19.0107L5.66238 15.6613C1.68426 14.5613 1.91863 10.4107 1.96113 8.24253C2.00988 6.0744 2.41676 4.30065 3.62801 3.0994C5.25863 1.62503 8.18863 1.42628 9.55238 1.41628H9.55363ZM9.85363 3.58378C9.82089 3.58345 9.78841 3.5896 9.75805 3.60189C9.7277 3.61417 9.70008 3.63234 9.67678 3.65534C9.65349 3.67835 9.63497 3.70574 9.62231 3.73594C9.60965 3.76613 9.60309 3.79854 9.60301 3.83128C9.60301 3.97128 9.71676 4.0819 9.85363 4.0819C10.4733 4.07012 11.0892 4.18113 11.6658 4.40855C12.2424 4.63596 12.7682 4.97527 13.213 5.40691C14.1211 6.28878 14.5636 7.47378 14.5805 9.02316C14.5805 9.16003 14.6911 9.27378 14.8311 9.27378V9.26378C14.8971 9.26395 14.9605 9.23803 15.0074 9.19166C15.0544 9.1453 15.0811 9.08226 15.0818 9.01628C15.1121 8.287 14.9938 7.55916 14.7341 6.87701C14.4745 6.19485 14.0788 5.57263 13.5711 5.04815C12.5818 4.08128 11.328 3.58315 9.85363 3.58315V3.58378ZM6.55926 4.1569C6.38235 4.13106 6.20192 4.16657 6.04801 4.25753H6.03488C5.67755 4.46699 5.35564 4.73173 5.08113 5.04191C4.85301 5.30566 4.72926 5.57253 4.69676 5.8294C4.67738 5.98253 4.69051 6.13565 4.73613 6.28191L4.75238 6.29191C5.00926 7.04691 5.34488 7.77316 5.75488 8.45691C6.28302 9.4175 6.93298 10.3059 7.68863 11.1L7.71113 11.1325L7.74676 11.1588L7.76926 11.185L7.79551 11.2075C8.59253 11.9654 9.48306 12.6184 10.4455 13.1507C11.5455 13.7494 12.213 14.0325 12.6136 14.15V14.1563C12.7311 14.1919 12.838 14.2082 12.9455 14.2082C13.2869 14.1831 13.6102 14.0445 13.8636 13.8144C14.1724 13.5398 14.4342 13.2166 14.6386 12.8575V12.8513C14.8305 12.49 14.7655 12.1482 14.4886 11.9169C13.9341 11.4322 13.3345 11.0017 12.698 10.6313C12.2718 10.4 11.8386 10.54 11.663 10.7744L11.2886 11.2463C11.0968 11.4807 10.748 11.4482 10.748 11.4482L10.738 11.4544C8.13738 10.79 7.44363 8.15691 7.44363 8.15691C7.44363 8.15691 7.41113 7.79878 7.65176 7.61628L8.12051 7.23878C8.34488 7.05628 8.50113 6.62378 8.26051 6.19691C7.89263 5.5595 7.46307 4.95975 6.97801 4.40628C6.87196 4.2758 6.72319 4.18702 6.55801 4.15565L6.55926 4.1569ZM10.2861 4.89941C9.95426 4.89941 9.95426 5.40065 10.2893 5.40065C10.7019 5.40735 11.1092 5.4953 11.4879 5.65949C11.8666 5.82367 12.2092 6.06087 12.4961 6.35753C12.7579 6.64629 12.959 6.98464 13.0877 7.35256C13.2163 7.72047 13.2697 8.11045 13.2449 8.4994C13.246 8.56523 13.2729 8.62799 13.3197 8.67425C13.3666 8.72051 13.4297 8.74659 13.4955 8.74691L13.5055 8.76003C13.5718 8.75954 13.6353 8.73298 13.6822 8.68608C13.7291 8.63919 13.7556 8.57572 13.7561 8.50941C13.7786 7.51628 13.4699 6.68316 12.8643 6.01566C12.2555 5.34816 11.4061 4.97378 10.3218 4.89941H10.2861ZM10.6968 6.2469C10.3549 6.23691 10.3418 6.74816 10.6805 6.75815C11.5043 6.80065 11.9043 7.21691 11.9568 8.07316C11.9579 8.13815 11.9844 8.20012 12.0307 8.24579C12.077 8.29146 12.1392 8.31721 12.2043 8.31753H12.2143C12.2477 8.3161 12.2805 8.30802 12.3107 8.29377C12.341 8.27953 12.3681 8.2594 12.3905 8.23455C12.4129 8.20971 12.4302 8.18065 12.4412 8.14908C12.4523 8.1175 12.4569 8.08404 12.4549 8.05066C12.3961 6.9344 11.7874 6.30566 10.7068 6.24753H10.6968V6.2469Z" fill="#2F85E7"/>
</g>
<defs>
<clipPath id="clip0_0_447">
<rect width="20" height="20" fill="white"/>
</clipPath>
</defs>
</svg>
